<?xml version="1.0" standalone="no"?>
<!DOCTYPE svg PUBLIC "-//W3C//DTD SVG 20010904//EN"
 "http://www.w3.org/TR/2001/REC-SVG-20010904/DTD/svg10.dtd">
<svg version="1.0" xmlns="http://www.w3.org/2000/svg"
 width="3200.000000pt" height="3200.000000pt" viewBox="0 0 3200.000000 3200.000000"
 preserveAspectRatio="xMidYMid meet">

<g transform="translate(0.000000,3200.000000) scale(0.100000,-0.100000)"
fill="#000000" stroke="none">
<path d="M10500 25819 c-245 -14 -584 -52 -835 -93 -82 -14 -184 -30 -225 -36
-192 -29 -281 -47 -495 -100 -498 -125 -915 -267 -1390 -473 -140 -60 -194
-86 -480 -231 -60 -30 -135 -67 -165 -82 -227 -109 -699 -413 -1040 -668 -96
-72 -182 -134 -190 -138 -77 -34 -900 -797 -1025 -951 -22 -27 -79 -93 -126
-146 -145 -163 -256 -301 -517 -640 -44 -56 -183 -264 -256 -383 -324 -523
-433 -721 -597 -1085 -39 -87 -75 -162 -79 -168 -14 -20 -112 -268 -134 -343
-13 -42 -45 -135 -71 -207 -216 -598 -366 -1260 -440 -1940 -57 -523 -61
-1195 -10 -1730 70 -731 209 -1354 460 -2070 35 -99 68 -196 73 -215 34 -122
324 -752 449 -975 94 -168 195 -339 281 -475 47 -74 93 -151 103 -170 67 -133
426 -603 749 -979 135 -157 507 -532 690 -695 85 -77 190 -170 232 -209 42
-38 91 -78 107 -88 17 -10 63 -45 103 -77 162 -131 424 -320 702 -505 115 -77
378 -230 511 -297 83 -42 211 -108 285 -147 164 -87 467 -223 690 -310 339
-134 902 -311 1105 -348 50 -9 161 -32 248 -51 252 -55 621 -115 857 -139 663
-67 1328 -64 1960 10 74 8 149 18 165 20 240 38 441 74 584 105 97 21 205 44
241 50 89 15 462 119 645 179 155 50 405 142 580 213 l100 40 2258 2257 c1243
1241 2267 2269 2278 2286 23 37 1400 1415 1414 1415 5 0 2329 2319 5163 5154
3899 3899 5150 5155 5137 5160 -9 3 -762 6 -1673 6 l-1656 0 -361 -360 c-1549
-1545 -6451 -6461 -6715 -6734 -225 -232 -458 -464 -540 -540 -41 -38 -1457
-1449 -3145 -3135 -3870 -3864 -3649 -3646 -3705 -3666 -67 -24 -319 -90 -492
-129 -916 -208 -1870 -206 -2783 4 -336 77 -586 154 -885 270 -102 40 -220 85
-263 101 -315 116 -959 494 -1274 747 -54 43 -109 85 -123 92 -101 53 -534
453 -725 670 -60 69 -131 147 -158 174 -110 113 -340 416 -513 677 -68 103
-124 190 -124 192 0 3 -36 68 -79 145 -92 161 -196 367 -270 532 -28 63 -56
123 -61 132 -42 75 -194 500 -262 733 -97 332 -141 553 -188 940 -39 323 -50
510 -50 830 0 295 16 533 60 880 38 302 83 534 148 760 184 639 349 1023 726
1685 20 36 51 85 68 110 357 518 517 714 893 1094 173 174 528 481 660 570 22
14 110 76 195 136 400 281 972 583 1356 714 71 24 181 63 244 86 253 91 794
221 1110 265 277 40 627 65 901 65 750 0 1537 -139 2209 -392 36 -14 97 -35
135 -47 146 -47 503 -214 700 -328 52 -29 100 -53 108 -53 15 0 1657 1635
1657 1650 0 34 -451 297 -850 496 -461 230 -785 364 -1230 509 -356 115 -824
234 -1005 255 -38 4 -122 17 -185 29 -297 53 -612 89 -985 111 -198 11 -755
11 -965 -1z"/>
<path d="M10591 17959 c-1513 -1514 -2751 -2756 -2751 -2760 0 -11 1640 -1649
1651 -1649 4 0 50 44 101 97 51 54 197 199 323 324 127 125 318 316 425 425
107 109 269 271 360 360 91 89 280 278 420 420 140 142 322 323 404 403 82 80
271 269 420 420 149 151 390 392 535 535 145 144 334 332 420 419 86 87 594
597 1130 1133 l974 974 -149 153 c-339 347 -1473 1476 -1492 1486 -18 10 -282
-251 -2771 -2740z"/>
<path d="M22426 14328 l-740 -739 30 -28 c42 -40 488 -446 556 -506 31 -27
247 -225 479 -440 233 -214 446 -410 474 -435 27 -25 129 -117 225 -205 96
-89 257 -236 356 -327 100 -91 199 -184 220 -208 22 -24 51 -51 66 -60 31 -18
639 -574 803 -733 60 -59 113 -107 118 -107 9 0 586 -529 704 -645 46 -45 119
-113 164 -151 117 -101 562 -507 719 -657 74 -71 173 -162 219 -201 80 -68
422 -381 696 -637 72 -67 165 -153 208 -190 l77 -69 1556 0 1556 0 -134 128
c-73 71 -182 173 -242 228 -60 54 -193 176 -295 269 -103 94 -223 201 -269
238 -45 38 -82 72 -82 76 0 4 -44 47 -97 96 -54 48 -147 134 -208 190 -60 56
-195 179 -300 274 -104 95 -210 191 -235 215 -25 23 -207 190 -405 371 -198
180 -387 354 -420 386 -33 32 -90 85 -126 116 -57 50 -645 589 -799 733 -30
28 -212 195 -405 371 -192 175 -402 366 -465 424 -63 58 -149 136 -190 172
-41 37 -122 110 -180 163 -58 53 -166 152 -240 219 -74 67 -136 126 -138 131
-4 9 -249 233 -297 270 -46 35 -480 434 -540 496 -56 57 -254 239 -360 329
-106 91 -434 391 -490 449 -62 63 -361 337 -446 407 -34 29 -130 115 -213 191
-83 76 -155 137 -161 137 -5 -1 -343 -334 -749 -741z"/>
</g>
</svg>
